# xmcd
#
# Track frame offsets:
# 150
# 12535
# 33949
# 62480
# 85317
# 109057
# 115937
# 143337
# 172358
# 202848
#
# Disc length: 3194 seconds
#
# Revision: 1
# Processed by: cddbd v1.5.1PL2 Copyright (c) Steve Scherf et al.
# Submitted via: CedeCatalogueitor 2.6.0.6 http://personales.ya.com/cdcatalogueitor
#
DISCID=800c780a
DTITLE=Everdome   - Tales Beyond Oblivion
DYEAR=2004
DGENRE=Power
TTITLE0=Oblivion
TTITLE1=The Crown
TTITLE2=Wanderer Of Legendary Fields
TTITLE3=Beyond The Shores Of Logic
TTITLE4=Darkness Lives Within
TTITLE5=The Passage
TTITLE6=Secrets Of The Ocean
TTITLE7=Fairyland
TTITLE8=Divine Tragedy
TTITLE9=Armageddon
EXTD=
EXTT0=
EXTT1=
EXTT2=
EXTT3=
EXTT4=
EXTT5=
EXTT6=
EXTT7=
EXTT8=
EXTT9=
PLAYORDER=
